<svg viewBox="0 0 24 24" preserveAspectRatio="xMinYMin meet" class="nav-icon" xmlns="http://www.w3.org/2000/svg"><path d="M22 9.45l-9.15-6.19A1.52 1.52 0 0012 3a1.49 1.49 0 00-.84.26L2 9.45 3.06 11l.94-.63V20a1 1 0 001 1h5v-5h4v5h5a1 1 0 001-1v-9.63l.94.63z" class="active-item"/><path d="M22 9.45l-9.15-6.19a1.5 1.5 0 00-1.69 0L2 9.45 3.06 11l.94-.63V20a1 1 0 001 1h6v-5h2v5h6a1 1 0 001-1v-9.63l.94.63zM18 19h-3v-4a1 1 0 00-1-1h-4a1 1 0 00-1 1v4H6V8.89l6-4 6 4V19z" class="inactive-item" fill="currentColor"/></svg>